<svg width="20" height="20" viewBox="0 0 20 20" fill="none" xmlns="http://www.w3.org/2000/svg">
<path d="M1.2884 10.879C0.713396 10.434 0.713396 9.56594 1.2884 9.12102C3.07017 7.74236 5.05976 6.65569 7.1827 5.9017L7.57108 5.76376C8.29578 5.50638 9.06186 5.9967 9.16005 6.7454C9.27482 7.62057 9.34267 8.51044 9.36359 9.40299C9.43033 9.29827 9.51638 9.20254 9.62174 9.12102C11.4035 7.74236 13.3931 6.65569 15.516 5.9017L15.9044 5.76376C16.6291 5.50638 17.3952 5.9967 17.4934 6.7454C17.7741 8.88582 17.7741 11.1142 17.4934 13.2546C17.3952 14.0033 16.6291 14.4936 15.9044 14.2362L15.516 14.0983C13.3931 13.3443 11.4035 12.2576 9.62174 10.879C9.51638 10.7974 9.43033 10.7017 9.36359 10.597C9.34267 11.4895 9.27482 12.3794 9.16005 13.2546C9.06186 14.0033 8.29578 14.4936 7.57108 14.2362L7.1827 14.0983C5.05976 13.3443 3.07017 12.2576 1.2884 10.879Z" fill="black"/>
</svg>
