<svg width="20" height="20" viewBox="0 0 20 20" fill="none" xmlns="http://www.w3.org/2000/svg">
<path d="M10.6363 9.40299C10.5696 9.29826 10.4836 9.20254 10.3782 9.12102C8.59643 7.74236 6.60684 6.65569 4.4839 5.9017L4.09552 5.76376C3.37082 5.50638 2.60474 5.9967 2.50655 6.7454C2.22584 8.88582 2.22584 11.1142 2.50655 13.2546C2.60474 14.0033 3.37082 14.4936 4.09552 14.2362L4.4839 14.0983C6.60684 13.3443 8.59643 12.2576 10.3782 10.879C10.4836 10.7974 10.5696 10.7017 10.6363 10.597C10.6573 11.4895 10.7251 12.3794 10.8399 13.2546C10.9381 14.0033 11.7042 14.4936 12.4289 14.2362L12.8172 14.0983C14.9402 13.3443 16.9298 12.2576 18.7115 10.879C19.2865 10.434 19.2865 9.56594 18.7115 9.12102C16.9298 7.74236 14.9402 6.65569 12.8172 5.9017L12.4289 5.76376C11.7042 5.50638 10.9381 5.9967 10.8399 6.7454C10.7251 7.62057 10.6573 8.51044 10.6363 9.40299Z" fill="black"/>
</svg>
