<svg width="20" height="20" viewBox="0 0 20 20" fill="none" xmlns="http://www.w3.org/2000/svg">
<path d="M13.4424 2.65457C11.1674 2.27318 8.83257 2.27318 6.55761 2.65457C5.72649 2.79391 5.0646 3.43196 4.89796 4.25927C4.13453 8.04935 4.09287 11.9494 4.77518 15.7549L5.05297 17.3043C5.13863 17.782 5.72105 17.973 6.07293 17.6387L9.42603 14.4533C9.74767 14.1477 10.2523 14.1477 10.5739 14.4533L13.927 17.6387C14.2789 17.973 14.8613 17.782 14.947 17.3043L15.2248 15.7549C15.9071 11.9494 15.8654 8.04935 15.102 4.25927C14.9354 3.43196 14.2735 2.79391 13.4424 2.65457Z" fill="white"/>
</svg>
