<svg width="20" height="20" viewBox="0 0 20 20" fill="none" xmlns="http://www.w3.org/2000/svg">
<path d="M9.99998 17.5C9.46248 17.0233 8.85498 16.5275 8.21248 16H8.20415C5.94165 14.15 3.37748 12.0567 2.24498 9.54832C1.87291 8.74976 1.67573 7.88093 1.66664 6.99999C1.66415 5.79123 2.14895 4.63248 3.01149 3.78563C3.87402 2.93878 5.04147 2.47532 6.24998 2.49999C7.23384 2.50154 8.19651 2.78589 9.02331 3.31916C9.38662 3.55497 9.71533 3.8402 9.99998 4.16666C10.2862 3.84149 10.615 3.55641 10.9775 3.31916C11.8039 2.78579 12.7664 2.50142 13.75 2.49999C14.9585 2.47532 16.1259 2.93878 16.9885 3.78563C17.851 4.63248 18.3358 5.79123 18.3333 6.99999C18.3248 7.88234 18.1276 8.75265 17.755 9.55249C16.6225 12.0608 14.0591 14.1533 11.7966 16L11.7883 16.0067C11.145 16.5308 10.5383 17.0267 10.0008 17.5067L9.99998 17.5ZM6.24998 4.16666C5.47374 4.15694 4.72504 4.45403 4.16664 4.99332C3.62863 5.5218 3.32794 6.24586 3.33324 6.99999C3.34275 7.64208 3.48817 8.27487 3.75998 8.85666C4.29457 9.93891 5.0159 10.9184 5.89081 11.75C6.71665 12.5833 7.66664 13.39 8.48831 14.0683C8.71581 14.2558 8.94748 14.445 9.17915 14.6342L9.32498 14.7533C9.54748 14.935 9.77748 15.1233 9.99998 15.3083L10.0108 15.2983L10.0158 15.2942H10.0208L10.0283 15.2883H10.0325H10.0366L10.0516 15.2758L10.0858 15.2483L10.0916 15.2433L10.1008 15.2367H10.1058L10.1133 15.23L10.6666 14.7758L10.8116 14.6567C11.0458 14.4658 11.2775 14.2767 11.505 14.0892C12.3266 13.4108 13.2775 12.605 14.1033 11.7675C14.9783 10.9363 15.6997 9.95709 16.2341 8.87499C16.5109 8.28816 16.6584 7.64875 16.6667 6.99999C16.6701 6.24819 16.3696 5.5269 15.8333 4.99999C15.276 4.45826 14.5272 4.15873 13.75 4.16666C12.8016 4.1586 11.8949 4.55613 11.2583 5.25916L9.99998 6.70916L8.74164 5.25916C8.10503 4.55613 7.19838 4.1586 6.24998 4.16666Z" fill="#2E3A59"/>
</svg>
