<svg width="24" height="24" viewBox="0 0 24 24" fill="none" xmlns="http://www.w3.org/2000/svg">
<g clip-path="url(#clip0_1393_1010)">
<path d="M19 20H6.00004C2.87441 20.0018 0.270931 17.6038 0.0164008 14.4886C-0.238129 11.3733 1.94156 8.58452 5.02604 8.07898C6.44575 5.56187 9.11015 4.0035 12 3.99993C13.8017 3.99334 15.5517 4.6015 16.961 5.72398C18.3449 6.82158 19.3289 8.34432 19.761 10.057C22.3478 10.4509 24.1934 12.7726 23.9937 15.3816C23.794 17.9905 21.6166 20.0043 19 20ZM12 5.99997C9.83175 6.00254 7.83271 7.17208 6.76804 9.06098L6.30004 9.89998L5.35104 10.055C3.30132 10.3984 1.85605 12.2543 2.02525 14.3257C2.19446 16.397 3.92176 17.9938 6.00004 18H19C20.5686 18.0016 21.8736 16.7946 21.9942 15.2307C22.1149 13.6667 21.0103 12.2739 19.46 12.035L18.144 11.835L17.822 10.543C17.1573 7.86979 14.7546 5.99494 12 5.99997Z" fill="#2E3A59"/>
</g>
<defs>
<clipPath id="clip0_1393_1010">
<rect width="24" height="24" fill="white"/>
</clipPath>
</defs>
</svg>
